<?xml version="1.0" encoding="UTF-8"?>
<svg id="Layer_1" data-name="Layer 1" xmlns="http://www.w3.org/2000/svg" viewBox="0 0 198.35 24">
  <defs>
    <style>
      .cls-1 {
        fill: #d2e10a;
        stroke-width: 0px;
      }
    </style>
  </defs>
  <path class="cls-1" d="M16.35,1.97h6.36v20.07h-6.36v-4.72l-8.02-4.12v8.84H1.96V1.97h6.36v4.72l8.02,4.12V1.97ZM14.38,0v7.58l-4.09-2.1V0H0v24h10.29v-7.58l4.09,2.1v5.48h10.29V0h-10.29Z"/>
  <g>
    <path class="cls-1" d="M44.34,13.45c0,4.03-2.69,5.93-5.76,5.93h-8.61V7.52h8.61c3.07,0,5.76,1.9,5.76,5.93ZM41.29,13.45c0-2.88-1.56-3.37-3.86-3.37h-4.4v6.74h4.4c2.3,0,3.86-.49,3.86-3.37Z"/>
    <path class="cls-1" d="M49.02,19.37h-3.05V7.52h3.05v11.86Z"/>
    <path class="cls-1" d="M57.89,13.02h7.52v6.35h-2.25l-.14-1.86c-1.12,1.22-2.9,2.03-5.42,2.03-4.37,0-7.05-2.17-7.05-6.1s2.68-6.1,7.56-6.1,7.12,1.85,7.3,4.79h-3.1c-.17-.9-.98-2.24-4.2-2.24-3.96,0-4.51,2.19-4.51,3.61s.56,3.68,4.51,3.68c2.95,0,4.13-1.29,4.2-2.19h-4.42v-1.98Z"/>
    <path class="cls-1" d="M70.17,19.37h-3.05V7.52h3.05v11.86Z"/>
    <path class="cls-1" d="M85.91,11.87c0,2.64-1.85,4.34-4.54,4.34h-6.27v3.17h-3.05V7.52h9.32c2.69,0,4.54,1.71,4.54,4.35ZM82.86,11.87c0-1.8-1.42-1.8-2.34-1.8h-5.42v3.57h5.42c.91,0,2.34,0,2.34-1.78Z"/>
    <path class="cls-1" d="M87.27,13.43c0-3.93,2.24-6.08,7.45-6.08s7.45,2.17,7.45,6.08-2.25,6.12-7.45,6.12-7.45-2.17-7.45-6.12ZM99.12,13.43c0-2.41-1.22-3.52-4.4-3.52s-4.4,1.1-4.4,3.52,1.24,3.56,4.4,3.56,4.4-1.13,4.4-3.56Z"/>
    <path class="cls-1" d="M115.08,15.85l2.19,3.52h-3.59l-1.91-3.17h-4.91v3.17h-3.05V7.52h9.32c2.69,0,4.54,1.71,4.54,4.35,0,1.93-.98,3.35-2.57,3.98ZM106.85,13.65h5.42c.91,0,2.34,0,2.34-1.78s-1.42-1.8-2.34-1.8h-5.42v3.57Z"/>
    <path class="cls-1" d="M133.37,10.07h-5.76v9.3h-3.05v-9.3h-5.76v-2.56h14.57v2.56Z"/>
    <path class="cls-1" d="M137.95,10.07v3.02h8.47v2.57h-8.47v3.71h-3.05V7.52h12.54v2.56h-9.49Z"/>
    <path class="cls-1" d="M148.42,13.43c0-3.93,2.24-6.08,7.45-6.08s7.45,2.17,7.45,6.08-2.25,6.12-7.45,6.12-7.45-2.17-7.45-6.12ZM160.27,13.43c0-2.41-1.22-3.52-4.4-3.52s-4.4,1.1-4.4,3.52,1.24,3.56,4.4,3.56,4.4-1.13,4.4-3.56Z"/>
    <path class="cls-1" d="M177.15,16.82v2.56h-12.2V7.52h3.05v9.3h9.15Z"/>
    <path class="cls-1" d="M181.9,19.37h-3.05V7.52h3.05v11.86Z"/>
    <path class="cls-1" d="M183.45,13.43c0-3.93,2.24-6.08,7.45-6.08s7.45,2.17,7.45,6.08-2.25,6.12-7.45,6.12-7.45-2.17-7.45-6.12ZM195.3,13.43c0-2.41-1.22-3.52-4.4-3.52s-4.4,1.1-4.4,3.52,1.24,3.56,4.4,3.56,4.4-1.13,4.4-3.56Z"/>
  </g>
</svg>