<?xml version="1.0" encoding="UTF-8"?>
<svg id="Palvelut" xmlns="http://www.w3.org/2000/svg" viewBox="0 0 162 162">
  <defs>
    <style>
      .cls-1 {
        stroke-width: 0px;
      }
    </style>
  </defs>
  <rect class="cls-1" x="37.38" y="32.92" width="2.49" height="2.49"/>
  <polygon class="cls-1" points="23.68 34.05 23.68 36.55 23.68 39.04 26.17 39.04 26.17 36.55 26.17 34.05 28.66 34.05 31.15 34.05 31.15 31.56 28.66 31.56 26.17 31.56 26.17 29.07 26.17 26.58 23.68 26.58 23.68 29.07 23.68 31.56 21.18 31.56 18.69 31.56 18.69 34.05 21.18 34.05 23.68 34.05"/>
  <polygon class="cls-1" points="47.35 43.1 47.35 45.59 44.86 45.59 44.86 48.09 47.35 48.09 47.35 50.58 49.85 50.58 49.85 48.09 52.34 48.09 52.34 45.59 49.85 45.59 49.85 43.1 47.35 43.1"/>
  <rect class="cls-1" x="137.08" y="132.76" width="2.49" height="2.49"/>
  <polygon class="cls-1" points="144.55 142.73 144.55 145.23 142.06 145.23 142.06 147.72 144.55 147.72 144.55 150.21 147.05 150.21 147.05 147.72 149.54 147.72 149.54 145.23 147.05 145.23 147.05 142.73 144.55 142.73"/>
  <rect class="cls-1" x="41.12" y="16.77" width="2.49" height="2.49"/>
  <rect class="cls-1" x="43.62" y="19.27" width="2.49" height="2.49"/>
  <rect class="cls-1" x="46.11" y="21.76" width="2.49" height="2.49"/>
  <rect class="cls-1" x="43.62" y="14.28" width="2.49" height="2.49"/>
  <rect class="cls-1" x="51.09" y="21.76" width="2.49" height="2.49"/>
  <rect class="cls-1" x="46.11" y="11.79" width="2.49" height="2.49"/>
  <rect class="cls-1" x="48.6" y="24.25" width="2.49" height="2.49"/>
  <rect class="cls-1" x="53.58" y="19.27" width="2.49" height="2.49"/>
  <rect class="cls-1" x="48.6" y="9.3" width="2.49" height="2.49"/>
  <rect class="cls-1" x="51.09" y="11.79" width="2.49" height="2.49"/>
  <rect class="cls-1" x="53.58" y="14.28" width="2.49" height="2.49"/>
  <rect class="cls-1" x="56.08" y="16.77" width="2.49" height="2.49"/>
  <rect class="cls-1" x="149.54" y="130.27" width="2.49" height="2.49"/>
  <rect class="cls-1" x="152.03" y="132.76" width="2.49" height="2.49"/>
  <rect class="cls-1" x="152.03" y="127.78" width="2.49" height="2.49"/>
  <rect class="cls-1" x="154.52" y="130.27" width="2.49" height="2.49"/>
  <polygon class="cls-1" points="72.28 115.32 69.78 115.32 67.29 115.32 64.8 115.32 62.31 115.32 59.82 115.32 57.32 115.32 54.83 115.32 52.34 115.32 49.85 115.32 47.35 115.32 44.86 115.32 42.37 115.32 39.88 115.32 37.38 115.32 34.89 115.32 32.4 115.32 29.91 115.32 27.42 115.32 24.92 115.32 22.43 115.32 19.94 115.32 19.94 117.81 22.43 117.81 24.92 117.81 27.42 117.81 29.91 117.81 32.4 117.81 34.89 117.81 37.38 117.81 39.88 117.81 42.37 117.81 44.86 117.81 47.35 117.81 49.85 117.81 52.34 117.81 54.83 117.81 57.32 117.81 59.82 117.81 62.31 117.81 64.8 117.81 67.29 117.81 69.78 117.81 72.28 117.81 72.28 115.32"/>
  <polygon class="cls-1" points="72.28 120.3 69.78 120.3 67.29 120.3 64.8 120.3 62.31 120.3 59.82 120.3 57.32 120.3 54.83 120.3 52.34 120.3 49.85 120.3 47.35 120.3 44.86 120.3 42.37 120.3 39.88 120.3 37.38 120.3 34.89 120.3 32.4 120.3 29.91 120.3 27.42 120.3 24.92 120.3 22.43 120.3 19.94 120.3 19.94 122.8 22.43 122.8 24.92 122.8 27.42 122.8 29.91 122.8 32.4 122.8 34.89 122.8 37.38 122.8 39.88 122.8 42.37 122.8 44.86 122.8 47.35 122.8 49.85 122.8 52.34 122.8 54.83 122.8 57.32 122.8 59.82 122.8 62.31 122.8 64.8 122.8 67.29 122.8 69.78 122.8 72.28 122.8 72.28 120.3"/>
  <polygon class="cls-1" points="31.49 132.76 41.01 132.76 50.53 132.76 60.04 132.76 69.56 132.76 79.07 132.76 88.59 132.76 98.11 132.76 107.62 132.76 117.14 132.76 117.14 130.27 107.62 130.27 98.11 130.27 88.59 130.27 79.07 130.27 69.56 130.27 60.04 130.27 50.53 130.27 41.01 130.27 31.49 130.27 21.98 130.27 12.46 130.27 12.46 132.76 21.98 132.76 31.49 132.76"/>
  <polygon class="cls-1" points="32.4 85.41 34.89 85.41 34.89 82.92 34.89 80.43 34.89 77.93 34.89 75.44 34.89 72.95 34.89 70.46 32.4 70.46 29.91 70.46 27.42 70.46 24.92 70.46 22.43 70.46 19.94 70.46 19.94 72.95 19.94 75.44 19.94 77.93 19.94 80.43 19.94 82.92 19.94 85.41 22.43 85.41 24.92 85.41 27.42 85.41 27.42 82.92 29.91 82.92 29.91 80.43 27.42 80.43 27.42 77.93 24.92 77.93 24.92 80.43 24.92 82.92 22.43 82.92 22.43 80.43 22.43 77.93 22.43 75.44 22.43 72.95 24.92 72.95 24.92 75.44 27.42 75.44 27.42 77.93 29.91 77.93 29.91 75.44 29.91 72.95 32.4 72.95 32.4 75.44 32.4 77.93 32.4 80.43 32.4 82.92 29.91 82.92 29.91 85.41 32.4 85.41"/>
  <polygon class="cls-1" points="44.86 72.95 47.35 72.95 49.85 72.95 52.34 72.95 54.83 72.95 54.83 70.46 52.34 70.46 49.85 70.46 47.35 70.46 44.86 70.46 42.37 70.46 39.88 70.46 39.88 72.95 42.37 72.95 44.86 72.95"/>
  <polygon class="cls-1" points="75.6 53.06 77.26 53.06 78.92 53.06 80.58 53.06 82.25 53.06 82.25 50.57 80.58 50.57 78.92 50.57 77.26 50.57 75.6 50.57 73.94 50.57 72.28 50.57 72.28 53.06 73.94 53.06 75.6 53.06"/>
  <polygon class="cls-1" points="75.6 58.05 77.26 58.05 78.92 58.05 80.58 58.05 82.25 58.05 82.25 53.06 80.58 53.06 78.92 53.06 77.26 53.06 75.6 53.06 73.94 53.06 72.28 53.06 72.28 58.05 73.94 58.05 75.6 58.05"/>
  <polygon class="cls-1" points="99.69 75.49 113.4 75.49 127.11 75.49 140.82 75.49 154.52 75.49 154.52 60.54 140.82 60.54 127.11 60.54 113.4 60.54 99.69 60.54 85.98 60.54 72.28 60.54 72.28 75.49 85.98 75.49 99.69 75.49"/>
  <polygon class="cls-1" points="90.14 55.55 91.59 55.55 93.05 55.55 94.5 55.55 95.95 55.55 95.95 53.06 94.5 53.06 93.05 53.06 91.59 53.06 90.14 53.06 88.68 53.06 87.23 53.06 87.23 55.55 88.68 55.55 90.14 55.55"/>
  <polygon class="cls-1" points="103.02 55.55 104.47 55.55 105.92 55.55 107.38 55.55 108.83 55.55 108.83 53.06 107.38 53.06 105.92 53.06 104.47 53.06 103.02 53.06 101.56 53.06 100.11 53.06 100.11 55.55 101.56 55.55 103.02 55.55"/>
  <polygon class="cls-1" points="115.89 55.55 117.35 55.55 118.8 55.55 120.25 55.55 121.71 55.55 121.71 53.06 120.25 53.06 118.8 53.06 117.35 53.06 115.89 53.06 114.44 53.06 112.98 53.06 112.98 55.55 114.44 55.55 115.89 55.55"/>
  <polygon class="cls-1" points="128.77 55.55 130.22 55.55 131.68 55.55 133.13 55.55 134.58 55.55 134.58 53.06 133.13 53.06 131.68 53.06 130.22 53.06 128.77 53.06 127.32 53.06 125.86 53.06 125.86 55.55 127.32 55.55 128.77 55.55"/>
  <polygon class="cls-1" points="141.65 55.55 143.1 55.55 144.55 55.55 146.01 55.55 147.46 55.55 147.46 53.06 146.01 53.06 144.55 53.06 143.1 53.06 141.65 53.06 140.19 53.06 138.74 53.06 138.74 55.55 140.19 55.55 141.65 55.55"/>
  <polygon class="cls-1" points="30.74 65.47 38.63 65.47 46.52 65.47 54.42 65.47 62.31 65.47 62.31 62.98 54.42 62.98 46.52 62.98 38.63 62.98 30.74 62.98 22.85 62.98 14.95 62.98 14.95 65.47 22.85 65.47 30.74 65.47"/>
  <polygon class="cls-1" points="25.75 112.83 28.66 112.83 31.57 112.83 34.48 112.83 37.38 112.83 37.38 87.9 34.48 87.9 31.57 87.9 28.66 87.9 25.75 87.9 22.85 87.9 19.94 87.9 19.94 112.83 22.85 112.83 25.75 112.83"/>
  <polygon class="cls-1" points="45.69 112.83 49.85 112.83 54 112.83 58.15 112.83 62.31 112.83 62.31 75.44 58.15 75.44 54 75.44 49.85 75.44 45.69 75.44 41.54 75.44 37.38 75.44 37.38 112.83 41.54 112.83 45.69 112.83"/>
  <polygon class="cls-1" points="60.65 72.95 61.06 72.95 61.48 72.95 61.89 72.95 62.31 72.95 62.31 70.46 61.89 70.46 61.48 70.46 61.06 70.46 60.65 70.46 60.23 70.46 59.82 70.46 59.82 72.95 60.23 72.95 60.65 72.95"/>
  <polygon class="cls-1" points="104.68 120.3 102.18 120.3 99.69 120.3 97.2 120.3 94.71 120.3 92.22 120.3 89.72 120.3 87.23 120.3 84.74 120.3 82.25 120.3 82.25 122.8 84.74 122.8 87.23 122.8 89.72 122.8 92.22 122.8 94.71 122.8 97.2 122.8 99.69 122.8 102.18 122.8 104.68 122.8 107.17 122.8 109.66 122.8 109.66 120.3 107.17 120.3 104.68 120.3"/>
  <polygon class="cls-1" points="72.28 125.29 69.78 125.29 67.29 125.29 64.8 125.29 62.31 125.29 59.82 125.29 57.32 125.29 54.83 125.29 52.34 125.29 49.85 125.29 47.35 125.29 44.86 125.29 42.37 125.29 39.88 125.29 37.38 125.29 34.89 125.29 32.4 125.29 29.91 125.29 27.42 125.29 24.92 125.29 22.43 125.29 19.94 125.29 19.94 127.78 22.43 127.78 24.92 127.78 27.42 127.78 29.91 127.78 32.4 127.78 34.89 127.78 37.38 127.78 39.88 127.78 42.37 127.78 44.86 127.78 47.35 127.78 49.85 127.78 52.34 127.78 54.83 127.78 57.32 127.78 59.82 127.78 62.31 127.78 64.8 127.78 67.29 127.78 69.78 127.78 72.28 127.78 72.28 125.29"/>
  <polygon class="cls-1" points="104.68 125.29 102.18 125.29 99.69 125.29 97.2 125.29 94.71 125.29 92.22 125.29 89.72 125.29 87.23 125.29 84.74 125.29 82.25 125.29 82.25 127.78 84.74 127.78 87.23 127.78 89.72 127.78 92.22 127.78 94.71 127.78 97.2 127.78 99.69 127.78 102.18 127.78 104.68 127.78 107.17 127.78 109.66 127.78 109.66 125.29 107.17 125.29 104.68 125.29"/>
  <polygon class="cls-1" points="109.66 115.32 107.17 115.32 104.68 115.32 102.18 115.32 99.69 115.32 97.2 115.32 94.71 115.32 92.22 115.32 89.72 115.32 87.23 115.32 84.74 115.32 82.25 115.32 82.25 117.81 84.74 117.81 87.23 117.81 89.72 117.81 92.22 117.81 94.71 117.81 97.2 117.81 99.69 117.81 102.18 117.81 104.68 117.81 107.17 117.81 109.66 117.81 109.66 115.32"/>
  <rect class="cls-1" x="9.97" y="132.76" width="2.49" height="2.49"/>
  <rect class="cls-1" x="117.14" y="132.76" width="2.49" height="2.49"/>
  <rect class="cls-1" x="119.63" y="135.26" width="2.49" height="2.49"/>
  <rect class="cls-1" x="122.12" y="137.75" width="2.49" height="2.49"/>
  <rect class="cls-1" x="122.12" y="140.24" width="2.49" height="2.49"/>
  <rect class="cls-1" x="124.62" y="142.73" width="2.49" height="2.49"/>
  <rect class="cls-1" x="127.11" y="147.72" width="2.49" height="2.49"/>
  <rect class="cls-1" x="7.48" y="135.26" width="2.49" height="2.49"/>
  <rect class="cls-1" x="4.98" y="140.24" width="2.49" height="2.49"/>
  <rect class="cls-1" x="2.49" y="142.73" width="2.49" height="2.49"/>
  <rect class="cls-1" x="0" y="147.72" width="2.49" height="2.49"/>
  <rect class="cls-1" x="4.98" y="137.75" width="2.49" height="2.49"/>
  <polygon class="cls-1" points="11.76 140.35 9.97 140.35 9.97 142.84 11.76 142.84 12.46 142.84 14.25 142.84 14.25 140.35 12.46 140.35 11.76 140.35"/>
  <polygon class="cls-1" points="22.43 142.84 22.43 140.35 19.94 140.35 17.45 140.35 17.45 142.84 19.94 142.84 22.43 142.84"/>
  <polygon class="cls-1" points="24.92 142.84 27.42 142.84 29.91 142.84 32.4 142.84 34.89 142.84 37.38 142.84 39.88 142.84 42.37 142.84 42.37 140.35 39.88 140.35 37.38 140.35 34.89 140.35 32.4 140.35 29.91 140.35 27.42 140.35 24.92 140.35 24.92 142.84"/>
  <polygon class="cls-1" points="54.83 142.73 57.32 142.73 59.82 142.73 62.31 142.73 64.8 142.73 67.29 142.73 69.78 142.73 72.28 142.73 74.77 142.73 77.26 142.73 79.75 142.73 79.75 140.24 77.26 140.24 74.77 140.24 72.28 140.24 69.78 140.24 67.29 140.24 64.8 140.24 62.31 140.24 59.82 140.24 57.32 140.24 54.83 140.24 52.34 140.24 49.85 140.24 49.85 142.73 52.34 142.73 54.83 142.73"/>
  <rect class="cls-1" x="87.23" y="140.35" width="2.49" height="2.49"/>
  <rect class="cls-1" x="107.17" y="140.24" width="2.49" height="2.49"/>
  <rect class="cls-1" x="114.65" y="140.24" width="2.49" height="2.49"/>
  <rect class="cls-1" x="0" y="145.23" width="129.6" height="2.49"/>
  <rect class="cls-1" x="0" y="150.21" width="129.6" height="2.49"/>
  <polygon class="cls-1" points="104.68 142.73 104.68 140.24 102.18 140.24 99.69 140.24 99.69 142.73 102.18 142.73 104.68 142.73"/>
  <rect class="cls-1" x="47.35" y="135.26" width="2.49" height="2.49"/>
  <rect class="cls-1" x="47.35" y="142.73" width="2.49" height="2.49"/>
  <rect class="cls-1" x="79.75" y="142.73" width="2.49" height="2.49"/>
  <polygon class="cls-1" points="44.86 137.75 44.86 135.26 42.37 135.26 39.88 135.26 39.88 137.75 42.37 137.75 44.86 137.75"/>
  <rect class="cls-1" x="24.92" y="135.26" width="2.49" height="2.49"/>
  <polygon class="cls-1" points="19.94 137.75 19.94 135.26 17.45 135.26 14.95 135.26 14.95 137.75 17.45 137.75 19.94 137.75"/>
  <rect class="cls-1" x="29.91" y="135.26" width="2.49" height="2.49"/>
  <rect class="cls-1" x="34.89" y="135.26" width="2.49" height="2.49"/>
  <rect class="cls-1" x="77.26" y="135.26" width="2.49" height="2.49"/>
  <polygon class="cls-1" points="69.78 135.26 69.78 137.75 72.28 137.75 74.77 137.75 74.77 135.26 72.28 135.26 69.78 135.26"/>
  <rect class="cls-1" x="54.83" y="135.26" width="2.49" height="2.49"/>
  <rect class="cls-1" x="59.82" y="135.26" width="2.49" height="2.49"/>
  <rect class="cls-1" x="64.8" y="135.26" width="2.49" height="2.49"/>
  <polygon class="cls-1" points="94.71 140.24 94.71 137.75 94.71 135.26 92.22 135.26 89.72 135.26 89.72 137.75 92.22 137.75 92.22 140.24 94.71 140.24"/>
  <rect class="cls-1" x="97.2" y="135.26" width="2.49" height="2.49"/>
  <rect class="cls-1" x="14.95" y="65.47" width="2.49" height="2.49"/>
  <rect class="cls-1" x="12.46" y="65.47" width="2.49" height="2.49"/>
  <rect class="cls-1" x="114.65" y="115.32" width="2.49" height="14.95"/>
  <rect class="cls-1" x="12.46" y="67.96" width="2.49" height="64.8"/>
  <rect class="cls-1" x="102.18" y="135.26" width="2.49" height="2.49"/>
  <rect class="cls-1" x="109.66" y="135.26" width="2.49" height="2.49"/>
  <rect class="cls-1" x="64.8" y="38.11" width="2.49" height="59.82"/>
  <rect class="cls-1" x="159.51" y="38.11" width="2.49" height="59.82"/>
  <rect class="cls-1" x="67.29" y="97.92" width="2.49" height="2.49"/>
  <rect class="cls-1" x="67.29" y="95.43" width="2.49" height="2.49"/>
  <rect class="cls-1" x="69.78" y="97.92" width="87.23" height="2.49"/>
  <rect class="cls-1" x="69.78" y="35.62" width="87.23" height="2.49"/>
  <rect class="cls-1" x="67.29" y="38.11" width="2.49" height="2.49"/>
  <rect class="cls-1" x="69.78" y="45.58" width="87.23" height="2.49"/>
  <rect class="cls-1" x="157.02" y="38.11" width="2.49" height="2.49"/>
  <rect class="cls-1" x="152.03" y="40.6" width="2.49" height="2.49"/>
  <rect class="cls-1" x="147.05" y="40.6" width="2.49" height="2.49"/>
  <rect class="cls-1" x="142.06" y="40.6" width="2.49" height="2.49"/>
  <rect class="cls-1" x="157.02" y="35.62" width="2.49" height="2.49"/>
  <rect class="cls-1" x="67.29" y="35.62" width="2.49" height="2.49"/>
  <rect class="cls-1" x="157.02" y="95.43" width="2.49" height="2.49"/>
  <rect class="cls-1" x="157.02" y="97.92" width="2.49" height="2.49"/>
  <rect class="cls-1" x="73.11" y="87.95" width="36.55" height="9.97"/>
  <rect class="cls-1" x="72.28" y="77.98" width="82.25" height="2.49"/>
  <rect class="cls-1" x="72.28" y="82.97" width="82.25" height="2.49"/>
  <rect class="cls-1" x="112.15" y="87.95" width="42.37" height="2.49"/>
  <rect class="cls-1" x="112.15" y="92.94" width="17.45" height="2.49"/>
  <rect class="cls-1" x="62.31" y="102.58" width="47.35" height="10.24"/>
  <rect class="cls-1" x="114.65" y="102.58" width="2.49" height="12.74"/>
</svg>