<?xml version="1.0" encoding="UTF-8"?>
<svg id="Design" xmlns="http://www.w3.org/2000/svg" viewBox="0 0 154.16 162">
  <defs>
    <style>
      .cls-1 {
        fill: #d2e10a;
        stroke-width: 0px;
      }
    </style>
  </defs>
  <rect class="cls-1" x="146.32" y="41.81" width="2.61" height="2.61"/>
  <rect class="cls-1" x="67.93" y="148.93" width="2.61" height="2.61"/>
  <polygon class="cls-1" points="78.39 154.16 78.39 156.77 75.77 156.77 75.77 159.38 78.39 159.38 78.39 162 81 162 81 159.38 83.61 159.38 83.61 156.77 81 156.77 81 154.16 78.39 154.16"/>
  <g>
    <rect class="cls-1" x="133.26" y="18.29" width="2.61" height="2.61"/>
    <rect class="cls-1" x="135.87" y="20.9" width="2.61" height="2.61"/>
    <rect class="cls-1" x="138.48" y="23.52" width="2.61" height="2.61"/>
    <rect class="cls-1" x="135.87" y="15.68" width="2.61" height="2.61"/>
    <rect class="cls-1" x="143.71" y="23.52" width="2.61" height="2.61"/>
    <rect class="cls-1" x="138.48" y="13.06" width="2.61" height="2.61"/>
    <rect class="cls-1" x="141.09" y="26.13" width="2.61" height="2.61"/>
    <rect class="cls-1" x="146.32" y="20.9" width="2.61" height="2.61"/>
    <rect class="cls-1" x="141.09" y="10.45" width="2.61" height="2.61"/>
    <rect class="cls-1" x="143.71" y="13.06" width="2.61" height="2.61"/>
    <rect class="cls-1" x="146.32" y="15.68" width="2.61" height="2.61"/>
    <rect class="cls-1" x="148.93" y="18.29" width="2.61" height="2.61"/>
  </g>
  <g>
    <rect class="cls-1" x="114.97" y="23.52" width="2.61" height="2.61"/>
    <rect class="cls-1" x="117.58" y="26.13" width="2.61" height="2.61"/>
    <rect class="cls-1" x="117.58" y="20.9" width="2.61" height="2.61"/>
    <rect class="cls-1" x="120.19" y="23.52" width="2.61" height="2.61"/>
  </g>
  <polygon class="cls-1" points="29.61 57.48 31.35 57.48 33.1 57.48 34.84 57.48 36.58 57.48 36.58 54.87 34.84 54.87 33.1 54.87 31.35 54.87 29.61 54.87 27.87 54.87 26.13 54.87 26.13 57.48 27.87 57.48 29.61 57.48"/>
  <polygon class="cls-1" points="29.61 60.1 31.35 60.1 33.1 60.1 34.84 60.1 36.58 60.1 36.58 57.48 34.84 57.48 33.1 57.48 31.35 57.48 29.61 57.48 27.87 57.48 26.13 57.48 26.13 60.1 27.87 60.1 29.61 60.1"/>
  <polygon class="cls-1" points="59.22 88.84 75.77 88.84 92.32 88.84 108.87 88.84 125.42 88.84 125.42 65.32 108.87 65.32 92.32 65.32 75.77 65.32 59.22 65.32 42.68 65.32 26.13 65.32 26.13 88.84 42.68 88.84 59.22 88.84"/>
  <polygon class="cls-1" points="44.42 60.1 45.72 60.1 47.03 60.1 48.34 60.1 49.64 60.1 49.64 57.48 48.34 57.48 47.03 57.48 45.72 57.48 44.42 57.48 43.11 57.48 41.81 57.48 41.81 60.1 43.11 60.1 44.42 60.1"/>
  <polygon class="cls-1" points="57.48 60.1 58.79 60.1 60.1 60.1 61.4 60.1 62.71 60.1 62.71 57.48 61.4 57.48 60.1 57.48 58.79 57.48 57.48 57.48 56.18 57.48 54.87 57.48 54.87 60.1 56.18 60.1 57.48 60.1"/>
  <polygon class="cls-1" points="70.55 60.1 71.85 60.1 73.16 60.1 74.47 60.1 75.77 60.1 75.77 57.48 74.47 57.48 73.16 57.48 71.85 57.48 70.55 57.48 69.24 57.48 67.93 57.48 67.93 60.1 69.24 60.1 70.55 60.1"/>
  <polygon class="cls-1" points="83.61 60.1 84.92 60.1 86.22 60.1 87.53 60.1 88.84 60.1 88.84 57.48 87.53 57.48 86.22 57.48 84.92 57.48 83.61 57.48 82.3 57.48 81 57.48 81 60.1 82.3 60.1 83.61 60.1"/>
  <polygon class="cls-1" points="96.68 60.1 97.98 60.1 99.29 60.1 100.59 60.1 101.9 60.1 101.9 57.48 100.59 57.48 99.29 57.48 97.98 57.48 96.68 57.48 95.37 57.48 94.06 57.48 94.06 60.1 95.37 60.1 96.68 60.1"/>
  <polygon class="cls-1" points="109.74 60.1 111.05 60.1 112.35 60.1 113.66 60.1 114.97 60.1 114.97 57.48 113.66 57.48 112.35 57.48 111.05 57.48 109.74 57.48 108.43 57.48 107.13 57.48 107.13 60.1 108.43 60.1 109.74 60.1"/>
  <polygon class="cls-1" points="121.93 60.1 122.8 60.1 123.68 60.1 124.55 60.1 125.42 60.1 125.42 57.48 124.55 57.48 123.68 57.48 122.8 57.48 121.93 57.48 121.06 57.48 120.19 57.48 120.19 60.1 121.06 60.1 121.93 60.1"/>
  <rect class="cls-1" x="18.29" y="41.81" width="2.61" height="73.16"/>
  <rect class="cls-1" x="130.64" y="41.81" width="2.61" height="49.64"/>
  <rect class="cls-1" x="20.9" y="114.97" width="2.61" height="2.61"/>
  <rect class="cls-1" x="20.9" y="112.35" width="2.61" height="2.61"/>
  <rect class="cls-1" x="23.52" y="114.97" width="62.71" height="2.61"/>
  <rect class="cls-1" x="23.52" y="39.19" width="104.51" height="2.61"/>
  <rect class="cls-1" x="20.9" y="41.81" width="2.61" height="2.61"/>
  <rect class="cls-1" x="23.52" y="49.64" width="104.51" height="2.61"/>
  <rect class="cls-1" x="128.03" y="41.81" width="2.61" height="2.61"/>
  <rect class="cls-1" x="122.8" y="44.42" width="2.61" height="2.61"/>
  <rect class="cls-1" x="117.58" y="44.42" width="2.61" height="2.61"/>
  <rect class="cls-1" x="112.35" y="44.42" width="2.61" height="2.61"/>
  <rect class="cls-1" x="128.03" y="39.19" width="2.61" height="2.61"/>
  <rect class="cls-1" x="20.9" y="39.19" width="2.61" height="2.61"/>
  <rect class="cls-1" x="26.13" y="107.13" width="36.58" height="7.84"/>
  <rect class="cls-1" x="26.13" y="94.06" width="60.1" height="2.61"/>
  <rect class="cls-1" x="26.13" y="99.29" width="60.1" height="2.61"/>
  <rect class="cls-1" x="67.93" y="107.13" width="18.29" height="2.61"/>
  <g>
    <rect class="cls-1" x="91.45" y="99.29" width="2.61" height="2.61"/>
    <rect class="cls-1" x="94.06" y="99.29" width="2.61" height="2.61"/>
    <rect class="cls-1" x="91.45" y="101.9" width="2.61" height="2.61"/>
    <rect class="cls-1" x="94.06" y="96.68" width="2.61" height="2.61"/>
    <rect class="cls-1" x="96.68" y="96.68" width="2.61" height="2.61"/>
    <rect class="cls-1" x="99.29" y="96.68" width="2.61" height="2.61"/>
    <rect class="cls-1" x="101.9" y="96.68" width="2.61" height="2.61"/>
    <rect class="cls-1" x="104.51" y="96.68" width="2.61" height="2.61"/>
    <rect class="cls-1" x="107.13" y="96.68" width="2.61" height="2.61"/>
    <rect class="cls-1" x="109.74" y="96.68" width="2.61" height="2.61"/>
    <rect class="cls-1" x="112.35" y="96.68" width="2.61" height="2.61"/>
    <rect class="cls-1" x="114.97" y="96.68" width="2.61" height="2.61"/>
    <rect class="cls-1" x="117.58" y="96.68" width="2.61" height="2.61"/>
    <rect class="cls-1" x="120.19" y="96.68" width="2.61" height="2.61"/>
    <rect class="cls-1" x="122.8" y="96.68" width="2.61" height="2.61"/>
    <rect class="cls-1" x="125.42" y="96.68" width="2.61" height="2.61"/>
    <rect class="cls-1" x="128.03" y="96.68" width="2.61" height="2.61"/>
    <rect class="cls-1" x="130.64" y="96.68" width="2.61" height="2.61"/>
    <rect class="cls-1" x="133.26" y="96.68" width="2.61" height="2.61"/>
    <rect class="cls-1" x="135.87" y="96.68" width="2.61" height="2.61"/>
    <rect class="cls-1" x="138.48" y="96.68" width="2.61" height="2.61"/>
    <rect class="cls-1" x="141.09" y="96.68" width="2.61" height="2.61"/>
    <rect class="cls-1" x="143.71" y="96.68" width="2.61" height="2.61"/>
    <rect class="cls-1" x="146.32" y="96.68" width="2.61" height="2.61"/>
    <rect class="cls-1" x="148.93" y="99.29" width="2.61" height="2.61"/>
    <rect class="cls-1" x="148.93" y="96.68" width="2.61" height="2.61"/>
    <rect class="cls-1" x="151.55" y="99.29" width="2.61" height="2.61"/>
    <rect class="cls-1" x="151.55" y="101.9" width="2.61" height="2.61"/>
    <rect class="cls-1" x="151.55" y="104.51" width="2.61" height="2.61"/>
    <rect class="cls-1" x="135.87" y="104.51" width="2.61" height="2.61"/>
    <rect class="cls-1" x="138.48" y="104.51" width="2.61" height="2.61"/>
    <rect class="cls-1" x="141.09" y="107.13" width="2.61" height="2.61"/>
    <rect class="cls-1" x="141.09" y="109.74" width="2.61" height="2.61"/>
    <rect class="cls-1" x="138.48" y="112.35" width="2.61" height="2.61"/>
    <rect class="cls-1" x="135.87" y="112.35" width="2.61" height="2.61"/>
    <rect class="cls-1" x="133.26" y="109.74" width="2.61" height="2.61"/>
    <rect class="cls-1" x="133.26" y="107.13" width="2.61" height="2.61"/>
    <rect class="cls-1" x="96.68" y="133.26" width="2.61" height="2.61"/>
    <rect class="cls-1" x="99.29" y="130.64" width="2.61" height="2.61"/>
    <rect class="cls-1" x="101.9" y="128.03" width="2.61" height="2.61"/>
    <rect class="cls-1" x="104.51" y="125.42" width="2.61" height="2.61"/>
    <rect class="cls-1" x="107.13" y="122.8" width="2.61" height="2.61"/>
    <rect class="cls-1" x="109.74" y="120.19" width="2.61" height="2.61"/>
    <rect class="cls-1" x="112.35" y="117.58" width="2.61" height="2.61"/>
    <rect class="cls-1" x="114.97" y="114.97" width="2.61" height="2.61"/>
    <rect class="cls-1" x="117.58" y="117.58" width="2.61" height="2.61"/>
    <rect class="cls-1" x="120.19" y="120.19" width="2.61" height="2.61"/>
    <rect class="cls-1" x="122.8" y="122.8" width="2.61" height="2.61"/>
    <rect class="cls-1" x="125.42" y="125.42" width="2.61" height="2.61"/>
    <rect class="cls-1" x="122.8" y="125.42" width="2.61" height="2.61"/>
    <rect class="cls-1" x="120.19" y="122.8" width="2.61" height="2.61"/>
    <rect class="cls-1" x="117.58" y="120.19" width="2.61" height="2.61"/>
    <rect class="cls-1" x="114.97" y="117.58" width="2.61" height="2.61"/>
    <rect class="cls-1" x="114.97" y="120.19" width="2.61" height="2.61"/>
    <rect class="cls-1" x="117.58" y="122.8" width="2.61" height="2.61"/>
    <rect class="cls-1" x="120.19" y="125.42" width="2.61" height="2.61"/>
    <rect class="cls-1" x="122.8" y="128.03" width="2.61" height="2.61"/>
    <rect class="cls-1" x="128.03" y="125.42" width="2.61" height="2.61"/>
    <rect class="cls-1" x="125.42" y="128.03" width="2.61" height="2.61"/>
    <rect class="cls-1" x="146.32" y="133.26" width="2.61" height="2.61"/>
    <rect class="cls-1" x="143.71" y="130.64" width="2.61" height="2.61"/>
    <rect class="cls-1" x="141.09" y="128.03" width="2.61" height="2.61"/>
    <rect class="cls-1" x="138.48" y="125.42" width="2.61" height="2.61"/>
    <rect class="cls-1" x="135.87" y="122.8" width="2.61" height="2.61"/>
    <rect class="cls-1" x="133.26" y="120.19" width="2.61" height="2.61"/>
    <rect class="cls-1" x="130.64" y="122.8" width="2.61" height="2.61"/>
    <rect class="cls-1" x="151.55" y="107.13" width="2.61" height="2.61"/>
    <rect class="cls-1" x="151.55" y="109.74" width="2.61" height="2.61"/>
    <rect class="cls-1" x="151.55" y="112.35" width="2.61" height="2.61"/>
    <rect class="cls-1" x="151.55" y="114.97" width="2.61" height="2.61"/>
    <rect class="cls-1" x="151.55" y="117.58" width="2.61" height="2.61"/>
    <rect class="cls-1" x="151.55" y="120.19" width="2.61" height="2.61"/>
    <rect class="cls-1" x="151.55" y="122.8" width="2.61" height="2.61"/>
    <rect class="cls-1" x="151.55" y="125.42" width="2.61" height="2.61"/>
    <rect class="cls-1" x="151.55" y="128.03" width="2.61" height="2.61"/>
    <rect class="cls-1" x="151.55" y="130.64" width="2.61" height="2.61"/>
    <rect class="cls-1" x="151.55" y="133.26" width="2.61" height="2.61"/>
    <rect class="cls-1" x="151.55" y="135.87" width="2.61" height="2.61"/>
    <rect class="cls-1" x="148.93" y="138.48" width="2.61" height="2.61"/>
    <rect class="cls-1" x="148.93" y="135.87" width="2.61" height="2.61"/>
    <rect class="cls-1" x="146.32" y="138.48" width="2.61" height="2.61"/>
    <rect class="cls-1" x="143.71" y="138.48" width="2.61" height="2.61"/>
    <rect class="cls-1" x="141.09" y="138.48" width="2.61" height="2.61"/>
    <rect class="cls-1" x="138.48" y="138.48" width="2.61" height="2.61"/>
    <rect class="cls-1" x="135.87" y="138.48" width="2.61" height="2.61"/>
    <rect class="cls-1" x="133.26" y="138.48" width="2.61" height="2.61"/>
    <rect class="cls-1" x="130.64" y="138.48" width="2.61" height="2.61"/>
    <rect class="cls-1" x="128.03" y="138.48" width="2.61" height="2.61"/>
    <rect class="cls-1" x="125.42" y="138.48" width="2.61" height="2.61"/>
    <rect class="cls-1" x="122.8" y="138.48" width="2.61" height="2.61"/>
    <rect class="cls-1" x="120.19" y="138.48" width="2.61" height="2.61"/>
    <rect class="cls-1" x="117.58" y="138.48" width="2.61" height="2.61"/>
    <rect class="cls-1" x="114.97" y="138.48" width="2.61" height="2.61"/>
    <rect class="cls-1" x="112.35" y="138.48" width="2.61" height="2.61"/>
    <rect class="cls-1" x="109.74" y="138.48" width="2.61" height="2.61"/>
    <rect class="cls-1" x="107.13" y="138.48" width="2.61" height="2.61"/>
    <rect class="cls-1" x="104.51" y="138.48" width="2.61" height="2.61"/>
    <rect class="cls-1" x="101.9" y="138.48" width="2.61" height="2.61"/>
    <rect class="cls-1" x="99.29" y="138.48" width="2.61" height="2.61"/>
    <rect class="cls-1" x="96.68" y="138.48" width="2.61" height="2.61"/>
    <rect class="cls-1" x="94.06" y="135.87" width="2.61" height="2.61"/>
    <rect class="cls-1" x="94.06" y="138.48" width="2.61" height="2.61"/>
    <rect class="cls-1" x="91.45" y="104.51" width="2.61" height="2.61"/>
    <rect class="cls-1" x="91.45" y="107.13" width="2.61" height="2.61"/>
    <rect class="cls-1" x="91.45" y="109.74" width="2.61" height="2.61"/>
    <rect class="cls-1" x="91.45" y="112.35" width="2.61" height="2.61"/>
    <rect class="cls-1" x="91.45" y="114.97" width="2.61" height="2.61"/>
    <rect class="cls-1" x="91.45" y="117.58" width="2.61" height="2.61"/>
    <rect class="cls-1" x="91.45" y="120.19" width="2.61" height="2.61"/>
    <rect class="cls-1" x="91.45" y="122.8" width="2.61" height="2.61"/>
    <rect class="cls-1" x="91.45" y="125.42" width="2.61" height="2.61"/>
    <rect class="cls-1" x="91.45" y="128.03" width="2.61" height="2.61"/>
    <rect class="cls-1" x="91.45" y="130.64" width="2.61" height="2.61"/>
    <rect class="cls-1" x="91.45" y="133.26" width="2.61" height="2.61"/>
    <rect class="cls-1" x="91.45" y="135.87" width="2.61" height="2.61"/>
    <rect class="cls-1" x="96.68" y="135.87" width="52.26" height="2.61"/>
    <rect class="cls-1" x="99.29" y="133.26" width="47.03" height="2.61"/>
    <rect class="cls-1" x="101.9" y="130.64" width="41.81" height="2.61"/>
    <rect class="cls-1" x="104.51" y="128.03" width="18.29" height="2.61"/>
    <rect class="cls-1" x="107.13" y="125.42" width="13.06" height="2.61"/>
    <rect class="cls-1" x="109.74" y="122.8" width="7.84" height="2.61"/>
    <rect class="cls-1" x="112.35" y="120.19" width="2.61" height="2.61"/>
    <rect class="cls-1" x="128.03" y="128.03" width="13.06" height="2.61"/>
    <rect class="cls-1" x="130.64" y="125.42" width="7.84" height="2.61"/>
    <rect class="cls-1" x="133.26" y="122.8" width="2.61" height="2.61"/>
    <rect class="cls-1" x="135.87" y="107.13" width="5.23" height="5.23"/>
  </g>
  <g>
    <rect class="cls-1" y="125.42" width="2.61" height="2.61"/>
    <rect class="cls-1" x="2.61" y="125.42" width="2.61" height="2.61"/>
    <rect class="cls-1" y="128.03" width="2.61" height="2.61"/>
    <rect class="cls-1" x="2.61" y="122.8" width="2.61" height="2.61"/>
    <rect class="cls-1" x="5.23" y="122.8" width="2.61" height="2.61"/>
    <rect class="cls-1" x="7.84" y="122.8" width="2.61" height="2.61"/>
    <rect class="cls-1" x="10.45" y="122.8" width="2.61" height="2.61"/>
    <rect class="cls-1" x="13.06" y="122.8" width="2.61" height="2.61"/>
    <rect class="cls-1" x="15.68" y="122.8" width="2.61" height="2.61"/>
    <rect class="cls-1" x="18.29" y="122.8" width="2.61" height="2.61"/>
    <rect class="cls-1" x="20.9" y="122.8" width="2.61" height="2.61"/>
    <rect class="cls-1" x="23.52" y="122.8" width="2.61" height="2.61"/>
    <rect class="cls-1" x="26.13" y="122.8" width="2.61" height="2.61"/>
    <rect class="cls-1" x="28.74" y="122.8" width="2.61" height="2.61"/>
    <rect class="cls-1" x="31.35" y="122.8" width="2.61" height="2.61"/>
    <rect class="cls-1" x="33.97" y="122.8" width="2.61" height="2.61"/>
    <rect class="cls-1" x="36.58" y="122.8" width="2.61" height="2.61"/>
    <rect class="cls-1" x="39.19" y="122.8" width="2.61" height="2.61"/>
    <rect class="cls-1" x="41.81" y="122.8" width="2.61" height="2.61"/>
    <rect class="cls-1" x="44.42" y="122.8" width="2.61" height="2.61"/>
    <rect class="cls-1" x="47.03" y="125.42" width="2.61" height="2.61"/>
    <rect class="cls-1" x="47.03" y="122.8" width="2.61" height="2.61"/>
    <rect class="cls-1" x="49.64" y="125.42" width="2.61" height="2.61"/>
    <rect class="cls-1" x="49.64" y="128.03" width="2.61" height="2.61"/>
    <rect class="cls-1" x="49.64" y="130.64" width="2.61" height="2.61"/>
    <rect class="cls-1" x="49.64" y="133.26" width="2.61" height="2.61"/>
    <rect class="cls-1" x="49.64" y="135.87" width="2.61" height="2.61"/>
    <rect class="cls-1" x="49.64" y="138.48" width="2.61" height="7.84"/>
    <rect class="cls-1" x="49.64" y="146.32" width="2.61" height="2.61"/>
    <rect class="cls-1" x="49.64" y="148.93" width="2.61" height="2.61"/>
    <rect class="cls-1" x="49.64" y="151.55" width="2.61" height="2.61"/>
    <rect class="cls-1" x="49.64" y="154.16" width="2.61" height="2.61"/>
    <rect class="cls-1" x="49.64" y="156.77" width="2.61" height="2.61"/>
    <rect class="cls-1" x="47.03" y="159.38" width="2.61" height="2.61"/>
    <rect class="cls-1" x="47.03" y="156.77" width="2.61" height="2.61"/>
    <rect class="cls-1" x="44.42" y="159.38" width="2.61" height="2.61"/>
    <rect class="cls-1" x="41.81" y="159.38" width="2.61" height="2.61"/>
    <rect class="cls-1" x="39.19" y="159.38" width="2.61" height="2.61"/>
    <rect class="cls-1" x="36.58" y="159.38" width="2.61" height="2.61"/>
    <rect class="cls-1" x="33.97" y="159.38" width="2.61" height="2.61"/>
    <rect class="cls-1" x="31.35" y="159.38" width="2.61" height="2.61"/>
    <rect class="cls-1" x="28.74" y="159.38" width="2.61" height="2.61"/>
    <rect class="cls-1" x="26.13" y="159.38" width="2.61" height="2.61"/>
    <rect class="cls-1" x="23.52" y="159.38" width="2.61" height="2.61"/>
    <rect class="cls-1" x="20.9" y="159.38" width="2.61" height="2.61"/>
    <rect class="cls-1" x="18.29" y="159.38" width="2.61" height="2.61"/>
    <rect class="cls-1" x="15.68" y="159.38" width="2.61" height="2.61"/>
    <rect class="cls-1" x="13.06" y="159.38" width="2.61" height="2.61"/>
    <rect class="cls-1" x="10.45" y="159.38" width="2.61" height="2.61"/>
    <rect class="cls-1" x="7.84" y="159.38" width="2.61" height="2.61"/>
    <rect class="cls-1" x="5.23" y="159.38" width="2.61" height="2.61"/>
    <rect class="cls-1" x="2.61" y="156.77" width="2.61" height="2.61"/>
    <rect class="cls-1" x="2.61" y="159.38" width="2.61" height="2.61"/>
    <rect class="cls-1" y="130.64" width="2.61" height="2.61"/>
    <rect class="cls-1" y="133.26" width="2.61" height="2.61"/>
    <rect class="cls-1" y="135.87" width="2.61" height="2.61"/>
    <rect class="cls-1" y="138.48" width="2.61" height="7.84"/>
    <rect class="cls-1" y="146.32" width="2.61" height="2.61"/>
    <rect class="cls-1" y="148.93" width="2.61" height="2.61"/>
    <rect class="cls-1" y="151.55" width="2.61" height="2.61"/>
    <rect class="cls-1" y="154.16" width="2.61" height="2.61"/>
    <rect class="cls-1" y="156.77" width="2.61" height="2.61"/>
    <rect class="cls-1" x="7.84" y="130.64" width="15.68" height="23.52"/>
    <rect class="cls-1" x="28.74" y="130.64" width="15.68" height="2.61"/>
    <rect class="cls-1" x="28.74" y="135.87" width="15.68" height="2.61"/>
    <rect class="cls-1" x="28.74" y="141.09" width="15.68" height="2.61"/>
    <rect class="cls-1" x="28.74" y="146.32" width="8.96" height="2.61"/>
  </g>
  <g>
    <rect class="cls-1" x="10.45" y="7.84" width="2.61" height="2.61"/>
    <rect class="cls-1" x="13.06" y="7.84" width="2.61" height="2.61"/>
    <rect class="cls-1" x="15.68" y="7.84" width="2.61" height="2.61"/>
    <rect class="cls-1" x="7.84" y="13.06" width="2.61" height="2.61"/>
    <rect class="cls-1" x="15.68" y="20.9" width="2.61" height="2.61"/>
    <rect class="cls-1" x="20.9" y="13.06" width="2.61" height="2.61"/>
    <rect class="cls-1" x="28.74" y="13.06" width="2.61" height="2.61"/>
    <rect class="cls-1" x="33.97" y="7.84" width="2.61" height="2.61"/>
    <rect class="cls-1" x="41.81" y="13.06" width="2.61" height="2.61"/>
    <rect class="cls-1" x="33.97" y="20.9" width="2.61" height="2.61"/>
    <rect class="cls-1" x="18.29" y="7.84" width="2.61" height="2.61"/>
    <rect class="cls-1" x="10.45" y="0" width="2.61" height="2.61"/>
    <rect class="cls-1" x="13.06" y="0" width="2.61" height="2.61"/>
    <rect class="cls-1" x="2.61" y="0" width="2.61" height="2.61"/>
    <rect class="cls-1" x="5.23" y="0" width="2.61" height="2.61"/>
    <rect class="cls-1" x="18.29" y="0" width="2.61" height="2.61"/>
    <rect class="cls-1" x="20.9" y="0" width="2.61" height="2.61"/>
    <rect class="cls-1" x="26.13" y="0" width="2.61" height="2.61"/>
    <rect class="cls-1" x="28.74" y="0" width="2.61" height="2.61"/>
    <rect class="cls-1" x="33.97" y="0" width="2.61" height="2.61"/>
    <rect class="cls-1" x="36.58" y="0" width="2.61" height="2.61"/>
    <rect class="cls-1" x="41.81" y="0" width="2.61" height="2.61"/>
    <rect class="cls-1" x="44.42" y="0" width="2.61" height="2.61"/>
    <rect class="cls-1" x="49.64" y="0" width="2.61" height="2.61"/>
    <rect class="cls-1" x="52.26" y="0" width="2.61" height="2.61"/>
    <rect class="cls-1" x="57.48" y="0" width="2.61" height="2.61"/>
    <rect class="cls-1" x="60.1" y="0" width="2.61" height="2.61"/>
    <rect class="cls-1" x="65.32" y="0" width="2.61" height="2.61"/>
    <rect class="cls-1" x="67.93" y="0" width="2.61" height="2.61"/>
    <rect class="cls-1" x="10.45" y="28.74" width="2.61" height="2.61"/>
    <rect class="cls-1" x="13.06" y="28.74" width="2.61" height="2.61"/>
    <rect class="cls-1" x="2.61" y="28.74" width="2.61" height="2.61"/>
    <rect class="cls-1" x="5.23" y="28.74" width="2.61" height="2.61"/>
    <rect class="cls-1" x="18.29" y="28.74" width="2.61" height="2.61"/>
    <rect class="cls-1" x="20.9" y="28.74" width="2.61" height="2.61"/>
    <rect class="cls-1" x="26.13" y="28.74" width="2.61" height="2.61"/>
    <rect class="cls-1" x="28.74" y="28.74" width="2.61" height="2.61"/>
    <rect class="cls-1" x="33.97" y="28.74" width="2.61" height="2.61"/>
    <rect class="cls-1" x="36.58" y="28.74" width="2.61" height="2.61"/>
    <rect class="cls-1" x="41.81" y="28.74" width="2.61" height="2.61"/>
    <rect class="cls-1" x="44.42" y="28.74" width="2.61" height="2.61"/>
    <rect class="cls-1" x="49.64" y="28.74" width="2.61" height="2.61"/>
    <rect class="cls-1" x="52.26" y="28.74" width="2.61" height="2.61"/>
    <rect class="cls-1" x="57.48" y="28.74" width="2.61" height="2.61"/>
    <rect class="cls-1" x="60.1" y="28.74" width="2.61" height="2.61"/>
    <rect class="cls-1" x="65.32" y="28.74" width="2.61" height="2.61"/>
    <rect class="cls-1" x="67.93" y="28.74" width="2.61" height="2.61"/>
    <rect class="cls-1" x="70.55" y="5.23" width="2.61" height="2.61" transform="translate(78.39 -65.32) rotate(90)"/>
    <rect class="cls-1" x="70.55" y="7.84" width="2.61" height="2.61" transform="translate(81 -62.71) rotate(90)"/>
    <rect class="cls-1" x="70.55" y="13.06" width="2.61" height="2.61" transform="translate(86.22 -57.48) rotate(90)"/>
    <rect class="cls-1" x="70.55" y="15.68" width="2.61" height="2.61" transform="translate(88.84 -54.87) rotate(90)"/>
    <rect class="cls-1" x="70.55" y="20.9" width="2.61" height="2.61" transform="translate(94.06 -49.64) rotate(90)"/>
    <rect class="cls-1" x="70.55" y="23.52" width="2.61" height="2.61" transform="translate(96.68 -47.03) rotate(90)"/>
    <rect class="cls-1" x="0" y="5.23" width="2.61" height="2.61" transform="translate(7.84 5.23) rotate(90)"/>
    <rect class="cls-1" y="7.84" width="2.61" height="2.61" transform="translate(10.45 7.84) rotate(90)"/>
    <rect class="cls-1" x="0" y="13.06" width="2.61" height="2.61" transform="translate(15.68 13.06) rotate(90)"/>
    <rect class="cls-1" x="0" y="15.68" width="2.61" height="2.61" transform="translate(18.29 15.68) rotate(90)"/>
    <rect class="cls-1" x="0" y="20.9" width="2.61" height="2.61" transform="translate(23.52 20.9) rotate(90)"/>
    <rect class="cls-1" x="0" y="23.52" width="2.61" height="2.61" transform="translate(26.13 23.52) rotate(90)"/>
    <rect class="cls-1" x="20.9" y="7.84" width="2.61" height="2.61"/>
    <rect class="cls-1" x="20.9" y="10.45" width="2.61" height="2.61"/>
    <rect class="cls-1" x="20.9" y="15.68" width="2.61" height="2.61"/>
    <rect class="cls-1" x="20.9" y="18.29" width="2.61" height="2.61"/>
    <rect class="cls-1" x="20.9" y="20.9" width="2.61" height="2.61"/>
    <rect class="cls-1" x="18.29" y="20.9" width="2.61" height="2.61"/>
    <rect class="cls-1" x="13.06" y="20.9" width="2.61" height="2.61"/>
    <rect class="cls-1" x="10.45" y="20.9" width="2.61" height="2.61"/>
    <rect class="cls-1" x="7.84" y="20.9" width="2.61" height="2.61"/>
    <rect class="cls-1" x="7.84" y="18.29" width="2.61" height="2.61"/>
    <rect class="cls-1" x="7.84" y="15.68" width="2.61" height="2.61"/>
    <rect class="cls-1" x="7.84" y="10.45" width="2.61" height="2.61"/>
    <rect class="cls-1" x="7.84" y="7.84" width="2.61" height="2.61"/>
    <rect class="cls-1" x="31.35" y="7.84" width="2.61" height="2.61"/>
    <rect class="cls-1" x="36.58" y="7.84" width="2.61" height="2.61"/>
    <rect class="cls-1" x="39.19" y="7.84" width="2.61" height="2.61"/>
    <rect class="cls-1" x="41.81" y="7.84" width="2.61" height="2.61"/>
    <rect class="cls-1" x="41.81" y="10.45" width="2.61" height="2.61"/>
    <rect class="cls-1" x="41.81" y="15.68" width="2.61" height="2.61"/>
    <rect class="cls-1" x="41.81" y="18.29" width="2.61" height="2.61"/>
    <rect class="cls-1" x="41.81" y="20.9" width="2.61" height="2.61"/>
    <rect class="cls-1" x="39.19" y="20.9" width="2.61" height="2.61"/>
    <rect class="cls-1" x="36.58" y="20.9" width="2.61" height="2.61"/>
    <rect class="cls-1" x="31.35" y="20.9" width="2.61" height="2.61"/>
    <rect class="cls-1" x="28.74" y="20.9" width="2.61" height="2.61"/>
    <rect class="cls-1" x="28.74" y="18.29" width="2.61" height="2.61"/>
    <rect class="cls-1" x="28.74" y="15.68" width="2.61" height="2.61"/>
    <rect class="cls-1" x="28.74" y="10.45" width="2.61" height="2.61"/>
    <rect class="cls-1" x="28.74" y="7.84" width="2.61" height="2.61"/>
    <rect class="cls-1" x="49.64" y="13.06" width="2.61" height="2.61"/>
    <rect class="cls-1" x="54.87" y="7.84" width="2.61" height="2.61"/>
    <rect class="cls-1" x="62.71" y="13.06" width="2.61" height="2.61"/>
    <rect class="cls-1" x="54.87" y="20.9" width="2.61" height="2.61"/>
    <rect class="cls-1" x="52.26" y="7.84" width="2.61" height="2.61"/>
    <rect class="cls-1" x="57.48" y="7.84" width="2.61" height="2.61"/>
    <rect class="cls-1" x="60.1" y="7.84" width="2.61" height="2.61"/>
    <rect class="cls-1" x="62.71" y="7.84" width="2.61" height="2.61"/>
    <rect class="cls-1" x="62.71" y="10.45" width="2.61" height="2.61"/>
    <rect class="cls-1" x="62.71" y="15.68" width="2.61" height="2.61"/>
    <rect class="cls-1" x="62.71" y="18.29" width="2.61" height="2.61"/>
    <rect class="cls-1" x="62.71" y="20.9" width="2.61" height="2.61"/>
    <rect class="cls-1" x="60.1" y="20.9" width="2.61" height="2.61"/>
    <rect class="cls-1" x="57.48" y="20.9" width="2.61" height="2.61"/>
    <rect class="cls-1" x="52.26" y="20.9" width="2.61" height="2.61"/>
    <rect class="cls-1" x="49.64" y="20.9" width="2.61" height="2.61"/>
    <rect class="cls-1" x="49.64" y="18.29" width="2.61" height="2.61"/>
    <rect class="cls-1" x="49.64" y="15.68" width="2.61" height="2.61"/>
    <rect class="cls-1" x="52.26" y="13.06" width="2.61" height="2.61"/>
    <rect class="cls-1" x="54.87" y="10.45" width="2.61" height="2.61"/>
    <rect class="cls-1" x="57.48" y="15.68" width="2.61" height="2.61"/>
    <rect class="cls-1" x="60.1" y="13.06" width="2.61" height="2.61"/>
    <rect class="cls-1" x="54.87" y="18.29" width="2.61" height="2.61"/>
    <rect class="cls-1" x="49.64" y="10.45" width="2.61" height="2.61"/>
    <rect class="cls-1" x="49.64" y="7.84" width="2.61" height="2.61"/>
    <rect class="cls-1" x="10.45" y="10.45" width="10.45" height="10.45"/>
  </g>
</svg>