<?xml version="1.0" encoding="UTF-8"?>
<svg id="Layer_1" data-name="Layer 1" xmlns="http://www.w3.org/2000/svg" viewBox="0 0 200.81 24">
  <defs>
    <style>
      .cls-1 {
        fill: #d2e10a;
        stroke-width: 0px;
      }
    </style>
  </defs>
  <path class="cls-1" d="M16.35,1.97h6.36v20.07h-6.36v-4.72l-8.02-4.12v8.84H1.96V1.97h6.36v4.72l8.02,4.12V1.97ZM14.38,0v7.58l-4.09-2.1V0H0v24h10.29v-7.58l4.09,2.1v5.48h10.29V0h-10.29Z"/>
  <g>
    <rect class="cls-1" x="46.14" y="7.47" width="3.06" height="11.88"/>
    <rect class="cls-1" x="67.63" y="7.47" width="3.06" height="11.88"/>
    <rect class="cls-1" x="181.55" y="7.47" width="3.06" height="11.88"/>
    <path class="cls-1" d="M133.82,10.04h-5.77v9.32h-3.06v-9.32h-5.77v-2.56h14.6v2.56Z"/>
    <path class="cls-1" d="M115.39,15.83l2.19,3.53h-3.6l-1.92-3.17h-4.92v3.17h-3.06V7.47h9.34c2.7,0,4.55,1.71,4.55,4.36,0,1.94-.98,3.36-2.58,3.99ZM107.14,13.62h5.43c.92,0,2.34,0,2.34-1.78s-1.43-1.8-2.34-1.8h-5.43v3.58Z"/>
    <polygon class="cls-1" points="169.46 16.3 169.46 7.47 166.41 7.47 166.41 16.3 166.41 19.36 169.46 19.36 180.29 19.36 180.29 16.3 169.46 16.3"/>
    <path class="cls-1" d="M80.9,16.18h-4.92v3.17h-3.06V7.47h9.34c2.7,0,4.55,1.71,4.55,4.36,0,1.94-.98,3.36-2.58,3.99,0,0-1.2.3-3.33.36ZM75.98,13.62h5.43c.92,0,2.34,0,2.34-1.78s-1.43-1.8-2.34-1.8h-5.43v3.58Z"/>
    <path class="cls-1" d="M143.06,16.18h-4.92v3.17h-3.06V7.47h13.88c0,.06,0,2.57,0,2.57h-10.83s0,3.54,0,3.58c0,.06,10.83,0,10.83,0,0,0,0,2.46,0,2.52l-5.9.04Z"/>
    <path class="cls-1" d="M87.89,13.4c0-3.94,2.24-6.09,7.47-6.09s7.47,2.17,7.47,6.09-2.26,6.13-7.47,6.13-7.47-2.17-7.47-6.13ZM99.77,13.4c0-2.41-1.22-3.53-4.41-3.53s-4.41,1.1-4.41,3.53,1.24,3.56,4.41,3.56,4.41-1.14,4.41-3.56Z"/>
    <path class="cls-1" d="M150.22,13.4c0-3.94,2.24-6.09,7.47-6.09s7.47,2.17,7.47,6.09-2.26,6.13-7.47,6.13-7.47-2.17-7.47-6.13ZM162.11,13.4c0-2.41-1.22-3.53-4.41-3.53s-4.41,1.1-4.41,3.53,1.24,3.56,4.41,3.56,4.41-1.14,4.41-3.56Z"/>
    <path class="cls-1" d="M185.86,13.4c0-3.94,2.24-6.09,7.47-6.09s7.47,2.17,7.47,6.09-2.26,6.13-7.47,6.13-7.47-2.17-7.47-6.13ZM197.75,13.4c0-2.41-1.22-3.53-4.41-3.53s-4.41,1.1-4.41,3.53,1.24,3.56,4.41,3.56,4.41-1.14,4.41-3.56Z"/>
    <path class="cls-1" d="M37.41,7.3h-7.47v12.22h7.47c5.21,0,7.47-2.19,7.47-6.13s-2.26-6.09-7.47-6.09ZM37.41,16.96h-4.41c0-.06,0-3.5,0-3.56,0-.18,0-3.37.02-3.53h4.39c3.19,0,4.41,1.12,4.41,3.53s-1.24,3.56-4.41,3.56Z"/>
    <path class="cls-1" d="M62.31,13.61v3.35h-4.39c-3.19,0-4.41-1.12-4.41-3.53s1.24-3.56,4.41-3.56h7.47v-2.56h-7.47c-5.21,0-7.47,2.19-7.47,6.13s2.26,6.09,7.47,6.09h7.47v-5.89"/>
  </g>
</svg>